<svg width="42" height="50" fill="none" xmlns="http://www.w3.org/2000/svg"><path fill-rule="evenodd" clip-rule="evenodd" d="M6.019 5.968a1.694 1.694 0 0 1-.125-.074h.009a.3.3 0 0 1 .01-.014.21.21 0 0 0 .02-.036l.035-.01.035-.012c.065.047.088.096.112.148.011.025.023.05.04.077 2.464 1.547 3.842.717 4.806-1.441.133-.312.261-.648.386-1.006C12.486.256 15.164.216 17.754.176c.83-.012 1.65-.025 2.407-.145 1.828-.287 1.244 1.416.453 2.236-.262.274-.569.504-.887.743-.8.602-1.671 1.255-2.055 2.784.739 0 1.446.005 2.132.01 1.505.01 2.906.019 4.307-.023 2.62-.078 3.064.875 1.62 2.994-.317.467-.573.978-.828 1.487-.319.636-.636 1.27-1.07 1.816-1.514 1.894-1.48 3.189 1.003 4.072.625.222 1.43.778 1.589 1.342.754 2.67 2.558 4.678 4.358 6.68 1.993 2.217 3.98 4.427 4.525 7.525.026.143.043.275.059.396.086.661.13.99 1.205.899 1.834-.172 4.003-.195 4.514 2.144.492 2.23-1.1 3.65-2.803 4.828-.232.158-.409.39-.606.65-.086.114-.177.233-.277.353.157.685.75.703 1.307.72.555.017 1.072.033 1.079.71.011 1.128-1.197 1.653-2.033 1.911-4.264 1.325-8.756 1.775-13.128 1.687-2.334-.052-4.377.694-6.409 1.436-1.474.538-2.943 1.075-4.513 1.302-.23.035-.456.086-.686.138-.832.19-1.722.392-3.075-.152 1.604-.582 2.665-1.764 3.733-2.954 1.594-1.777 3.205-3.572 6.67-3.426-.607-.252-1.094-.458-1.503-.63l-.003-.002a40.527 40.527 0 0 0-1.811-.735c-2.33-.841-2.642-2.477-.903-4.372.98-1.064 1.658-2.206-.564-2.667-1.222-.251-.93-.774-.607-1.354.233-.418.483-.865.193-1.262-.372-.511.85-.656 1.556-.567 2.089.27 5.041.63 4.23-2.422-.066-.247-.128-.525-.195-.821-.46-2.053-1.12-4.987-4.494-4.543-3.655.48-4.802-.425-2.516-3.742-.465-.208-1.109.032-1.725.263-1.17.437-2.245.838-1.822-1.927.025-.175-.32-.594-.39-.575-.265.084-.537.348-.807.61-.585.567-1.162 1.127-1.656-.16-.353-.917.244-1.16.944-1.444.712-.29 1.532-.623 1.57-1.753-.056-.179-.467-.183-.91-.187-.739-.007-1.566-.015-.968-.84 1.99-2.746.467-3.9-1.236-5.19a40.038 40.038 0 0 1-.528-.405c-.23-.18-.146-.45-.057-.739.042-.136.086-.277.099-.414a.071.071 0 0 0-.003-.015.072.072 0 0 1-.003-.015.594.594 0 0 0-.086-.384 1.52 1.52 0 0 0-.131-.079ZM1.478 26.186c-.561-.091-1.2-.68-1.14-1.528.123-1.555 4.865-4.725 6.97-4.6 1.94.107 2.565 1.425 3.152 2.664.239.502.47.99.782 1.38-.092 1.834-1.2 2.87-2.392 2.876-2.34.029-4.698-.356-7.027-.736l-.345-.056ZM8.192.878c-2.625.7-4.14 2.094-3.953 4.914-1.759.173-1.249.888-.778 1.547.073.103.146.205.208.303.136-.31.372-.6.616-.898.155-.191.314-.386.451-.591.154-.04.309-.08.463-.122.244-.064.488-.128.731-.19.237-.521.644-.963 1.057-1.41.842-.913 1.708-1.852 1.205-3.553ZM3.575 8.425c.422-.147.308-.442.092-.783-.109.239-.173.489-.092.783Z" fill="#0E8784"/></svg>